<svg xmlns="http://www.w3.org/2000/svg" xmlns:xlink="http://www.w3.org/1999/xlink" version="1.0" x="0px" y="0px" viewBox="0 0 100 100" enable-background="new 0 0 100 100" xml:space="preserve"><g><rect x="31" y="16" width="38" height="4"></rect><rect x="39" y="11" width="22" height="4"></rect><path d="M73,90V21H28v69h-8v3h59v-3H73z M42,27h6v6h-6V27z M42,38h6v6h-6V38z M42,49h6v6h-6V49z M42,59h6v6h-6V59z M42,70h6v6h-6   V70z M38,76h-6v-6h6V76z M38,65h-6v-6h6V65z M38,55h-6v-6h6V55z M38,44h-6v-6h6V44z M38,33h-6v-6h6V33z M57,90H42v-8h15V90z M59,76   h-6v-6h6V76z M59,65h-6v-6h6V65z M59,55h-6v-6h6V55z M59,44h-6v-6h6V44z M59,33h-6v-6h6V33z M69,76h-6v-6h6V76z M69,65h-6v-6h6V65z    M69,55h-6v-6h6V55z M69,44h-6v-6h6V44z M69,33h-6v-6h6V33z"></path></g></svg>