<svg xmlns="http://www.w3.org/2000/svg" xmlns:xlink="http://www.w3.org/1999/xlink" version="1.1" x="0px" y="0px" viewBox="0 0 100 100" enable-background="new 0 0 100 100" xml:space="preserve"><path d="M94.976,41.607c-0.104-1.189-0.731-1.68-1.293-2.206c-0.561-0.526-2.132-0.14-2.794-0.07c-0.666,0.07-0.69-1.156-0.69-1.156  s0.339-11.731,0.2-11.944c-0.141-0.206-1.705-0.034-2.021,0.14c-0.315,0.177-0.187,0.737-0.187,0.737L50.03,26.584l-38.19,0.523  c0,0,0.115-0.56-0.2-0.737c-0.317-0.174-1.889-0.347-2.028-0.14c-0.14,0.213,0.195,11.944,0.195,11.944s-0.025,1.226-0.691,1.156  c-0.665-0.069-2.236-0.455-2.796,0.07c-0.561,0.525-1.188,1.016-1.294,2.206c-0.104,1.191,0.141,2.276,0.458,2.523  c0.133,0.102,0.189,0.136,0.211,0.142l0.279,7.07c0,0-0.49,0.685-0.246,3.626c0.246,2.94,1.227,18.896,1.227,18.896h1.892  l0.421-1.997v-6.199l1.472-2.886v2.712l1.903-0.038l0.407-0.402v-7.579H50.03h36.985v7.579l0.409,0.402l1.903,0.038v-2.712  l1.471,2.886v6.199l0.357,1.997h1.893c0,0,0.98-15.956,1.226-18.895c0.244-2.943-0.245-3.626-0.245-3.626l0.279-7.07  c0.022-0.006,0.079-0.041,0.212-0.142C94.835,43.884,95.081,42.798,94.976,41.607z M8.092,43.533c-0.07-0.49,0.281-1.4,0.701-1.611  c0.421-0.21,1.104,0,1.104,0v4.414l-1.487,2.067C8.409,48.403,8.161,44.024,8.092,43.533z M10.525,58.103l-1.529,2.215l-0.222-2.843  h1.75L10.525,58.103L10.525,58.103z M14.52,45.285h-2.102V31.835h2.102V45.285z M20.192,45.285H18.09V31.835h2.102V45.285z   M25.866,45.285h-2.102V31.835h2.102V45.285z M31.539,45.285h-2.103V31.835h2.103V45.285z M37.211,45.285h-2.1V31.835h2.1V45.285z   M42.888,45.285h-2.101V31.835h2.101V45.285z M48.56,45.285h-2.102V31.835h2.102V45.285z M53.605,45.285h-2.103V31.835h2.103V45.285  z M59.277,45.285h-2.102V31.835h2.102V45.285z M64.948,45.285h-2.103V31.835h2.103V45.285z M70.623,45.285h-2.1V31.835h2.1V45.285z   M76.301,45.285h-2.104V31.835h2.104V45.285z M81.971,45.285H79.87V31.835h2.101V45.285z M87.646,45.285h-2.103V31.835h2.103V45.285  z M91.033,60.317l-1.496-2.215v-0.628h1.688L91.033,60.317z M91.941,43.533c-0.072,0.491-0.318,4.869-0.318,4.869l-1.455-2.067  v-4.414c0,0,0.652-0.21,1.07,0C91.66,42.133,92.01,43.044,91.941,43.533z"></path></svg>