<svg xmlns="http://www.w3.org/2000/svg" xmlns:xlink="http://www.w3.org/1999/xlink" version="1.1" x="0px" y="0px" viewBox="0 0 48 48" enable-background="new 0 0 48 48" xml:space="preserve"><g><path d="M45.728,28.832l-9.166-2.688v-9.835c0-0.44-0.29-0.826-0.711-0.95l-10.862-3.185V5.52h3.259   c0.547,0,0.989-0.443,0.989-0.99c0-0.547-0.442-0.99-0.989-0.99h-3.259V0.99c0-0.547-0.443-0.99-0.99-0.99s-0.99,0.443-0.99,0.99   v2.55h-3.257c-0.547,0-0.99,0.443-0.99,0.99c0,0.546,0.442,0.99,0.99,0.99h3.257v6.607l-10.863,3.233   c-0.419,0.126-0.708,0.511-0.708,0.949v9.796l-9.17,2.728c-0.419,0.126-0.708,0.512-0.708,0.949v17.229   c0,0.546,0.442,0.989,0.99,0.989h14.638v-8.876c0-3.677,3.055-6.667,6.81-6.667c3.756,0,6.812,2.99,6.812,6.667V48h14.639   c0.547,0,0.99-0.443,0.99-0.989V29.781C46.439,29.343,46.149,28.956,45.728,28.832z M23.999,28.011   c-2.821,0-5.117-2.296-5.117-5.117s2.295-5.118,5.117-5.118c2.822,0,5.118,2.296,5.118,5.118S26.821,28.011,23.999,28.011z"></path></g></svg>