<svg xmlns="http://www.w3.org/2000/svg" xmlns:xlink="http://www.w3.org/1999/xlink" version="1.1" x="0px" y="0px" viewBox="0 0 95.961 73.119" enable-background="new 0 0 95.961 73.119" xml:space="preserve"><path fill-rule="evenodd" clip-rule="evenodd" d="M48.064,0c0.027,0,0.055,0,0.082,0c2.686,3.267,5.082,6.567,7.963,9.755  c0.766,0.849,1.189,1.442,1.168,3.071c-0.008,0.521-0.152,1.13-0.043,1.626c0.08,0.354,0.881,1.06,1.25,1.445  c6.107,6.356,12.453,12.317,18.426,18.787c0.215,0.234,0.451,0.444,0.666,0.679c0.199,0.216,0.471,0.425,0.584,0.722  c-1.389,0-2.779,0-4.168,0c-0.184,1.835-0.035,4.025-0.084,6.007c-1.568,0-3.139,0-4.709,0c-0.555,8.514-0.023,17.528-0.043,26.285  c8.908,0.1,17.953-0.012,26.805,0.045c0,1.566,0,3.132,0,4.697c-31.986,0-63.977,0-95.961,0c0-1.565,0-3.131,0-4.697  c8.809,0,17.619,0,26.429,0c0.183-8.635,0.381-17.623,0.125-26.33c-1.403-0.086-3.11,0.113-4.502-0.091c0-1.972,0-3.943,0-5.916  c-1.417,0-2.834,0-4.252,0c6.466-6.693,13.064-13.637,19.759-20.278c0.356-0.354,1.175-1.108,1.251-1.445  c0.225-0.998-0.147-2.236,0.125-3.162c0.292-0.996,1.546-2.063,2.209-2.845C43.525,5.548,45.681,2.511,48.064,0z M44.146,29.13  c-0.391,0.465-1.05,1.088-1.167,1.581c-0.166,0.696-0.071,1.534-0.125,2.303c-0.052,0.75-0.089,1.51-0.125,2.304  c3.363,0.075,7.016,0.075,10.379,0c-0.283-1.616,0.217-3.281-0.125-4.606c-0.133-0.521-0.83-1.093-1.209-1.536  c-1.303-1.529-2.484-3.089-3.709-4.516c-0.004-0.027-0.008-0.053-0.043-0.044C46.769,25.923,45.424,27.609,44.146,29.13z   M42.228,46.608c3.641,0.075,7.573,0.075,11.214,0c-0.018-1.532-0.107-2.984-0.125-4.517c-3.613,0-7.226,0-10.838,0  C42.188,43.374,42.331,45.124,42.228,46.608z M42.186,54.015c0.065,4.808,0.163,9.579,0.208,14.407c3.599,0,7.198,0,10.797,0  c0.127-4.799,0.221-9.637,0.25-14.542c-3.738,0-7.476,0-11.214,0C42.179,53.887,42.182,53.951,42.186,54.015z"></path></svg>