<svg xmlns:dc="http://purl.org/dc/elements/1.1/" xmlns:cc="http://creativecommons.org/ns#" xmlns:rdf="http://www.w3.org/1999/02/22-rdf-syntax-ns#" xmlns:svg="http://www.w3.org/2000/svg" xmlns="http://www.w3.org/2000/svg" version="1.1" viewBox="0 0 100 100" xml:space="preserve" x="0px" y="0px"><path d="m 50,12.84375 c -0.357741,0 -0.65625,0.29851 -0.65625,0.65625 l 0,7.46875 C 43.412787,21.307663 38.6875,26.224896 38.6875,32.25 l 22.625,0 c 0,-6.025104 -4.725287,-10.973588 -10.65625,-11.3125 l 0,-7.4375 c 0,-0.35774 -0.29851,-0.65625 -0.65625,-0.65625 z m -11.3125,20.6875 c -1.035565,0 -1.875,0.839435 -1.875,1.875 l 0,1.90625 0,5.625 0,3.78125 3.75,0 3.78125,0 3.75,0 11.3125,0 3.75,0 0.03125,0 0,-3.78125 0,-5.625 0,-1.90625 c 0,-1.035565 -0.839435,-1.875 -1.875,-1.875 l -1.875,0 -3.78125,0 -3.75,0 -11.3125,0 -1.90625,0 z m 1.90625,3.78125 3.75,0 0,5.625 -3.75,0 0,-5.625 z m 7.53125,0 3.75,0 0,5.625 -3.75,0 0,-5.625 z m 7.53125,0 3.75,0 0,5.625 -3.75,0 0,-5.625 z M 34.9375,48 c -1.035565,0 -1.875,0.870685 -1.875,1.90625 l 0,9.40625 -26.1875,0 C 5.8394351,59.3125 5,60.151935 5,61.1875 l 0,18.84375 c 0,1.035565 0.8394351,1.875 1.875,1.875 l 26.1875,0 0.1875,0 33.5,0 0.1875,0 26.1875,0 c 1.035564,0 1.875,-0.839435 1.875,-1.875 L 95,61.1875 c 0,-1.035565 -0.839436,-1.875 -1.875,-1.875 l -26.1875,0 0,-9.40625 C 66.9375,48.870685 66.098065,48 65.0625,48 l -30.125,0 z M 19.125,52.375 c -2.598326,0 -4.71875,2.499477 -4.71875,5.625 l 9.4375,0 c 0,-3.125523 -2.120423,-5.625 -4.71875,-5.625 z m 61.75,0 c -2.598327,0 -4.71875,2.499477 -4.71875,5.625 l 9.4375,0 c 0,-3.125523 -2.120424,-5.625 -4.71875,-5.625 z m -43.0625,5.0625 c 1.562761,0 2.8125,1.71012 2.8125,3.78125 l 0,16.59375 -5.65625,0 0,-16.59375 c 0,-2.07113 1.280988,-3.78125 2.84375,-3.78125 z m 8.125,0 c 1.562761,0 2.8125,1.71012 2.8125,3.78125 l 0,16.59375 -5.65625,0 0,-16.59375 c 0,-2.07113 1.280988,-3.78125 2.84375,-3.78125 z m 8.15625,0 c 1.562761,0 2.8125,1.71012 2.8125,3.78125 l 0,16.59375 -5.65625,0 0,-16.59375 c 0,-2.07113 1.280988,-3.78125 2.84375,-3.78125 z m 8.125,0 c 1.562761,0 2.8125,1.71012 2.8125,3.78125 l 0,16.59375 -5.625,0 0,-16.59375 c 0,-2.07113 1.249738,-3.78125 2.8125,-3.78125 z m -50.59375,5.96875 2.5,0 0,5.125 -2.5,0 0,-5.125 z m 12.5,0 2.5,0 0,5.125 -2.5,0 0,-5.125 z m 49.28125,0 2.5,0 0,5.125 -2.5,0 0,-5.125 z m 12.46875,0 2.5,0 0,5.125 -2.5,0 0,-5.125 z m -74.25,9.28125 2.5,0 0,5.125 -2.5,0 0,-5.125 z m 12.5,0 2.5,0 0,5.125 -2.5,0 0,-5.125 z m 49.28125,0 2.5,0 0,5.125 -2.5,0 0,-5.125 z m 12.46875,0 2.5,0 0,5.125 -2.5,0 0,-5.125 z M 33.71875,83.21875 c -0.357741,0 -0.65625,0.298509 -0.65625,0.65625 0,0.357741 0.298509,0.65625 0.65625,0.65625 l 32.5625,0 c 0.35774,0 0.65625,-0.298509 0.65625,-0.65625 0,-0.357741 -0.279681,-0.65625 -0.65625,-0.65625 l -32.5625,0 z m 0,2.625 c -0.357741,0 -0.65625,0.298509 -0.65625,0.65625 0,0.35774 0.298509,0.65625 0.65625,0.65625 l 32.5625,0 c 0.35774,0 0.65625,-0.29851 0.65625,-0.65625 0,-0.357741 -0.279681,-0.65625 -0.65625,-0.65625 l -32.5625,0 z"></path></svg>