<svg xmlns="http://www.w3.org/2000/svg" xmlns:xlink="http://www.w3.org/1999/xlink" version="1.1" x="0px" y="0px" viewBox="0 0 72 72" enable-background="new 0 0 72 72" xml:space="preserve"><g><path fill="#000000" d="M35.3,6.8v12.8c0,0.1,0.1,0.1,0.1,0.1h4.3c0.1,0,0.1-0.1,0.1-0.1V6.8c0-0.1-0.1-0.1-0.1-0.1h-4.3   C35.3,6.7,35.3,6.7,35.3,6.8z M37.6,18.4c-0.7,0-1.2-0.5-1.2-1.2c0-0.7,0.5-1.2,1.2-1.2c0.7,0,1.2,0.5,1.2,1.2   C38.8,17.8,38.3,18.4,37.6,18.4z M38.8,10.8h-2.4c-0.2,0-0.4-0.2-0.4-0.4c0-0.2,0.2-0.4,0.4-0.4h2.4c0.2,0,0.4,0.2,0.4,0.4   C39.2,10.7,39,10.8,38.8,10.8z M38.8,8.8h-2.4c-0.2,0-0.4-0.2-0.4-0.4c0-0.2,0.2-0.4,0.4-0.4h2.4c0.2,0,0.4,0.2,0.4,0.4   C39.2,8.6,39,8.8,38.8,8.8z"></path><path fill="#000000" d="M27.4,6.8v12.8c0,0.1,0.1,0.1,0.1,0.1h4.3c0.1,0,0.1-0.1,0.1-0.1V6.8c0-0.1-0.1-0.1-0.1-0.1h-4.3   C27.4,6.7,27.4,6.7,27.4,6.8z M29.7,18.4c-0.7,0-1.2-0.5-1.2-1.2c0-0.7,0.5-1.2,1.2-1.2c0.7,0,1.2,0.5,1.2,1.2   C30.9,17.8,30.3,18.4,29.7,18.4z M30.9,10.8h-2.4c-0.2,0-0.4-0.2-0.4-0.4c0-0.2,0.2-0.4,0.4-0.4h2.4c0.2,0,0.4,0.2,0.4,0.4   C31.2,10.7,31.1,10.8,30.9,10.8z M30.9,8.8h-2.4c-0.2,0-0.4-0.2-0.4-0.4c0-0.2,0.2-0.4,0.4-0.4h2.4c0.2,0,0.4,0.2,0.4,0.4   C31.2,8.6,31.1,8.8,30.9,8.8z"></path><path fill="#000000" d="M19.4,6.8v12.8c0,0.1,0.1,0.1,0.1,0.1h4.3c0.1,0,0.1-0.1,0.1-0.1V6.8c0-0.1-0.1-0.1-0.1-0.1h-4.3   C19.5,6.7,19.4,6.7,19.4,6.8z M21.7,18.4c-0.7,0-1.2-0.5-1.2-1.2c0-0.7,0.5-1.2,1.2-1.2c0.7,0,1.2,0.5,1.2,1.2   C22.9,17.8,22.4,18.4,21.7,18.4z M22.9,10.8h-2.4c-0.2,0-0.4-0.2-0.4-0.4c0-0.2,0.2-0.4,0.4-0.4h2.4c0.2,0,0.4,0.2,0.4,0.4   C23.3,10.7,23.2,10.8,22.9,10.8z M22.9,8.8h-2.4c-0.2,0-0.4-0.2-0.4-0.4c0-0.2,0.2-0.4,0.4-0.4h2.4c0.2,0,0.4,0.2,0.4,0.4   C23.3,8.6,23.2,8.8,22.9,8.8z"></path><path fill="#000000" d="M11.5,6.8v12.8c0,0.1,0.1,0.1,0.1,0.1H16c0.1,0,0.1-0.1,0.1-0.1V6.8c0-0.1-0.1-0.1-0.1-0.1h-4.3   C11.6,6.7,11.5,6.7,11.5,6.8z M13.8,18.4c-0.7,0-1.2-0.5-1.2-1.2c0-0.7,0.5-1.2,1.2-1.2c0.7,0,1.2,0.5,1.2,1.2   C15,17.8,14.5,18.4,13.8,18.4z M15,10.8h-2.4c-0.2,0-0.4-0.2-0.4-0.4c0-0.2,0.2-0.4,0.4-0.4H15c0.2,0,0.4,0.2,0.4,0.4   C15.4,10.7,15.2,10.8,15,10.8z M15,8.8h-2.4c-0.2,0-0.4-0.2-0.4-0.4c0-0.2,0.2-0.4,0.4-0.4H15c0.2,0,0.4,0.2,0.4,0.4   C15.4,8.6,15.2,8.8,15,8.8z"></path><path fill="#000000" d="M42,7.3l3.3,12.4c0,0.1,0.1,0.1,0.2,0.1l4.2-1.1c0.1,0,0.1-0.1,0.1-0.2L46.5,6.1C46.5,6,46.4,6,46.3,6   l-4.2,1.1C42.1,7.1,42,7.2,42,7.3z M47.2,17.9c-0.7,0.2-1.3-0.2-1.5-0.9c-0.2-0.7,0.2-1.3,0.9-1.5c0.7-0.2,1.3,0.2,1.5,0.9   C48.2,17,47.8,17.7,47.2,17.9z M46.5,10.3l-2.4,0.6c-0.2,0.1-0.4-0.1-0.4-0.3c-0.1-0.2,0.1-0.4,0.3-0.4l2.4-0.6   c0.2-0.1,0.4,0.1,0.4,0.3C46.8,10,46.7,10.2,46.5,10.3z M45.9,8.3l-2.4,0.6c-0.2,0.1-0.4-0.1-0.4-0.3c-0.1-0.2,0.1-0.4,0.3-0.4   l2.4-0.6c0.2-0.1,0.4,0.1,0.4,0.3C46.3,8.1,46.1,8.3,45.9,8.3z"></path><path fill="#000000" d="M39,50.5v12.8c0,0.1,0.1,0.1,0.1,0.1h4.3c0.1,0,0.1-0.1,0.1-0.1V50.5c0-0.1-0.1-0.1-0.1-0.1h-4.3   C39.1,50.4,39,50.4,39,50.5z M41.3,62c-0.7,0-1.2-0.5-1.2-1.2c0-0.7,0.5-1.2,1.2-1.2c0.7,0,1.2,0.5,1.2,1.2   C42.5,61.5,42,62,41.3,62z M42.5,54.5h-2.4c-0.2,0-0.4-0.2-0.4-0.4c0-0.2,0.2-0.4,0.4-0.4h2.4c0.2,0,0.4,0.2,0.4,0.4   C42.9,54.3,42.7,54.5,42.5,54.5z M42.5,52.5h-2.4c-0.2,0-0.4-0.2-0.4-0.4c0-0.2,0.2-0.4,0.4-0.4h2.4c0.2,0,0.4,0.2,0.4,0.4   C42.9,52.3,42.7,52.5,42.5,52.5z"></path><path fill="#000000" d="M31.4,50.5v12.8c0,0.1,0.1,0.1,0.1,0.1h4.3c0.1,0,0.1-0.1,0.1-0.1V50.5c0-0.1-0.1-0.1-0.1-0.1h-4.3   C31.4,50.4,31.4,50.4,31.4,50.5z M33.7,62c-0.7,0-1.2-0.5-1.2-1.2c0-0.7,0.5-1.2,1.2-1.2c0.7,0,1.2,0.5,1.2,1.2   C34.9,61.5,34.4,62,33.7,62z M34.9,54.5h-2.4c-0.2,0-0.4-0.2-0.4-0.4c0-0.2,0.2-0.4,0.4-0.4h2.4c0.2,0,0.4,0.2,0.4,0.4   C35.3,54.3,35.1,54.5,34.9,54.5z M34.9,52.5h-2.4c-0.2,0-0.4-0.2-0.4-0.4c0-0.2,0.2-0.4,0.4-0.4h2.4c0.2,0,0.4,0.2,0.4,0.4   C35.3,52.3,35.1,52.5,34.9,52.5z"></path><path fill="#000000" d="M23.7,50.5v12.8c0,0.1,0.1,0.1,0.1,0.1h4.3c0.1,0,0.1-0.1,0.1-0.1V50.5c0-0.1-0.1-0.1-0.1-0.1h-4.3   C23.8,50.4,23.7,50.4,23.7,50.5z M26,62c-0.7,0-1.2-0.5-1.2-1.2c0-0.7,0.5-1.2,1.2-1.2c0.7,0,1.2,0.5,1.2,1.2   C27.3,61.5,26.7,62,26,62z M27.3,54.5h-2.4c-0.2,0-0.4-0.2-0.4-0.4c0-0.2,0.2-0.4,0.4-0.4h2.4c0.2,0,0.4,0.2,0.4,0.4   C27.6,54.3,27.5,54.5,27.3,54.5z M27.3,52.5h-2.4c-0.2,0-0.4-0.2-0.4-0.4c0-0.2,0.2-0.4,0.4-0.4h2.4c0.2,0,0.4,0.2,0.4,0.4   C27.6,52.3,27.5,52.5,27.3,52.5z"></path><path fill="#000000" d="M16.1,50.5v12.8c0,0.1,0.1,0.1,0.1,0.1h4.3c0.1,0,0.1-0.1,0.1-0.1V50.5c0-0.1-0.1-0.1-0.1-0.1h-4.3   C16.2,50.4,16.1,50.4,16.1,50.5z M18.4,62c-0.7,0-1.2-0.5-1.2-1.2c0-0.7,0.5-1.2,1.2-1.2c0.7,0,1.2,0.5,1.2,1.2   C19.6,61.5,19.1,62,18.4,62z M19.6,54.5h-2.4c-0.2,0-0.4-0.2-0.4-0.4c0-0.2,0.2-0.4,0.4-0.4h2.4c0.2,0,0.4,0.2,0.4,0.4   C20,54.3,19.8,54.5,19.6,54.5z M19.6,52.5h-2.4c-0.2,0-0.4-0.2-0.4-0.4c0-0.2,0.2-0.4,0.4-0.4h2.4c0.2,0,0.4,0.2,0.4,0.4   C20,52.3,19.8,52.5,19.6,52.5z"></path><path fill="#000000" d="M51.8,28.7h-4.3c-0.1,0-0.1,0.1-0.1,0.1v12.8c0,0.1,0.1,0.1,0.1,0.1h4.3c0.1,0,0.1-0.1,0.1-0.1V28.8   C51.9,28.7,51.9,28.7,51.8,28.7z M48.4,39.2c0-0.7,0.5-1.2,1.2-1.2c0.7,0,1.2,0.5,1.2,1.2c0,0.7-0.5,1.2-1.2,1.2   C48.9,40.4,48.4,39.8,48.4,39.2z M48,32.5c0-0.2,0.2-0.4,0.4-0.4h2.4c0.2,0,0.4,0.2,0.4,0.4c0,0.2-0.2,0.4-0.4,0.4h-2.4   C48.2,32.8,48,32.7,48,32.5z M48,30.4c0-0.2,0.2-0.4,0.4-0.4h2.4c0.2,0,0.4,0.2,0.4,0.4c0,0.2-0.2,0.4-0.4,0.4h-2.4   C48.2,30.8,48,30.6,48,30.4z"></path><path fill="#000000" d="M60.2,28.7h-4.3c-0.1,0-0.1,0.1-0.1,0.1v12.8c0,0.1,0.1,0.1,0.1,0.1h4.3c0.1,0,0.1-0.1,0.1-0.1V28.8   C60.4,28.7,60.3,28.7,60.2,28.7z M56.8,39.2c0-0.7,0.5-1.2,1.2-1.2c0.7,0,1.2,0.5,1.2,1.2c0,0.7-0.5,1.2-1.2,1.2   C57.4,40.4,56.8,39.8,56.8,39.2z M56.5,32.5c0-0.2,0.2-0.4,0.4-0.4h2.4c0.2,0,0.4,0.2,0.4,0.4c0,0.2-0.2,0.4-0.4,0.4h-2.4   C56.6,32.8,56.5,32.7,56.5,32.5z M56.5,30.4c0-0.2,0.2-0.4,0.4-0.4h2.4c0.2,0,0.4,0.2,0.4,0.4c0,0.2-0.2,0.4-0.4,0.4h-2.4   C56.6,30.8,56.5,30.6,56.5,30.4z"></path><path fill="#000000" d="M0.5,1.8v68.4c0,0.7,0.6,1.3,1.3,1.3h5.6c0.4,0,0.7-0.1,0.9-0.4l2.2-2.2c0.2-0.2,0.6-0.4,0.9-0.4h49   c0.4,0,0.7,0.1,0.9,0.4l2.2,2.2c0.2,0.2,0.6,0.4,0.9,0.4h5.6c0.7,0,1.3-0.6,1.3-1.3V1.8c0-0.7-0.6-1.3-1.3-1.3H1.8   C1.1,0.5,0.5,1.1,0.5,1.8z M65.1,65H6.9c-0.7,0-1.3-0.6-1.3-1.3V49.6c0-0.7,0.6-1.3,1.3-1.3h58.3c0.7,0,1.3,0.6,1.3,1.3v14.1   C66.5,64.4,65.9,65,65.1,65z M65.1,43.3H6.9c-0.7,0-1.3-0.6-1.3-1.3V27.9c0-0.7,0.6-1.3,1.3-1.3h58.3c0.7,0,1.3,0.6,1.3,1.3V42   C66.5,42.7,65.9,43.3,65.1,43.3z M65.1,21.6H6.9c-0.7,0-1.3-0.6-1.3-1.3V6.2c0-0.7,0.6-1.3,1.3-1.3h58.3c0.7,0,1.3,0.6,1.3,1.3   v14.1C66.5,21,65.9,21.6,65.1,21.6z"></path></g></svg>