<svg xmlns="http://www.w3.org/2000/svg" xmlns:xlink="http://www.w3.org/1999/xlink" version="1.1" x="0px" y="0px" viewBox="0 0 100 100" enable-background="new 0 0 100 100" xml:space="preserve"><g><path fill="#000000" d="M4.541,44.063c-1.097,2.86-0.185,5.37-0.185,5.37c1.14,2.965,2.499,3.449,5.354,3.449   c0.958,0,1.853-0.205,2.622-0.553V88H50.11V66.366h23.608V88h14.169V52.329c0.772,0.349,1.665,0.553,2.625,0.553   c2.853,0,4.73-2.364,5.167-3.954c0,0,0.993-2.994,0-4.865c-1.687-3.177-14.424-31.026-14.424-31.026H18.964 M14.903,48.926V48.47   h-0.024v-4.407l9.767-24.945h7.801L24.76,44.063v4.865v0.002c-0.002,2.181-2.208,3.95-4.929,3.95   C17.11,52.88,14.903,51.111,14.903,48.926z M33.568,74.542H20.792V61.767h12.775V74.542z M44.954,44.063v4.407v0.456   c0,2.184-2.207,3.954-4.927,3.954c-2.724,0-4.93-1.769-4.93-3.954V48.47v-4.407l4.083-24.945h7.778L44.954,44.063z M60.22,52.88   c-2.721,0-4.927-1.769-4.927-3.954V48.47v-4.407l-2.006-24.945h7.754l4.081,24.945v4.865c0,0.065,0.011,0.132,0.015,0.196   C65.006,51.215,62.857,52.88,60.22,52.88z M85.342,48.47h-0.025v0.456c0,2.184-2.206,3.954-4.929,3.954   c-2.721,0-4.927-1.769-4.927-3.954V48.47v-4.407l-7.688-24.945h7.802l9.768,24.945V48.47z"></path></g></svg>