<svg xmlns="http://www.w3.org/2000/svg" xmlns:xlink="http://www.w3.org/1999/xlink" version="1.1" x="0px" y="0px" viewBox="0 0 48 48" enable-background="new 0 0 48 48" xml:space="preserve"><g><path d="M33.77,10.404C29.277,5.388,24.673,3.209,24,0c-0.673,3.209-5.277,5.388-9.77,10.404c-4.492,5.012,0,10.401,0,10.401H24   h9.77C33.77,20.805,38.262,15.416,33.77,10.404z"></path><path d="M9.731,16.364c-1.555-2.142-3.147-3.072-3.381-4.442c-0.233,1.371-1.826,2.301-3.381,4.442c-1.554,2.141,0,4.441,0,4.441   H6.35h3.381C9.731,20.805,11.286,18.505,9.731,16.364z"></path><path d="M45.031,16.364c-1.556-2.142-3.148-3.072-3.382-4.442c-0.232,1.371-1.825,2.301-3.381,4.442c-1.554,2.141,0,4.441,0,4.441   h3.381h3.382C45.031,20.805,46.586,18.505,45.031,16.364z"></path><path d="M34.554,23.473H13.446c-0.521,0-0.945,0.422-0.945,0.944v22.639c0,0.522,0.424,0.944,0.945,0.944h6.783V35.759   c0-3.2,1.599-5.819,3.553-5.819h0.437c1.953,0,3.552,2.619,3.552,5.819V48h6.782c0.521,0,0.944-0.422,0.944-0.944V24.417   C35.498,23.895,35.075,23.473,34.554,23.473z"></path><path d="M9.932,23.473H2.769c-0.521,0-0.944,0.422-0.944,0.944v22.639C1.825,47.578,2.248,48,2.769,48h7.163   c0.522,0,0.944-0.422,0.944-0.944V24.417C10.875,23.895,10.454,23.473,9.932,23.473z"></path><path d="M45.23,23.473h-7.161c-0.522,0-0.945,0.422-0.945,0.944v22.639c0,0.522,0.423,0.944,0.945,0.944h7.161   c0.522,0,0.945-0.422,0.945-0.944V24.417C46.176,23.895,45.753,23.473,45.23,23.473z"></path></g></svg>