<svg xmlns="http://www.w3.org/2000/svg" xmlns:xlink="http://www.w3.org/1999/xlink" version="1.1" x="0px" y="0px" viewBox="0 0 48 48" enable-background="new 0 0 48 48" xml:space="preserve"><g><path d="M41.299,32.939c-0.447,0-0.85-0.313-0.946-0.769l-1.134-5.416c-0.118-0.571-0.765-1.091-1.354-1.091H27.019   c-0.589,0-1.235,0.52-1.356,1.091l-1.131,5.416c-0.11,0.522-0.624,0.858-1.146,0.748c-0.523-0.108-0.858-0.622-0.749-1.145   l1.132-5.417c0.31-1.474,1.737-2.627,3.25-2.627h10.846c1.514,0,2.939,1.154,3.25,2.627l1.133,5.417   c0.11,0.522-0.227,1.035-0.748,1.145C41.432,32.933,41.365,32.939,41.299,32.939z"></path><path d="M41.62,31.005H23.265c-1.736,0-3.149,1.354-3.149,3.018v5.652c0,1.664,1.413,3.019,3.149,3.019H41.62   c1.736,0,3.147-1.354,3.147-3.019v-5.652C44.768,32.358,43.356,31.005,41.62,31.005z M25.328,38.244   c-0.738,0-1.334-0.623-1.334-1.396c0-0.77,0.596-1.395,1.334-1.395c0.736,0,1.334,0.625,1.334,1.395   C26.662,37.621,26.064,38.244,25.328,38.244z M34.765,37.815h-4.644c-0.535,0-0.968-0.433-0.968-0.967   c0-0.535,0.433-0.968,0.968-0.968h4.644c0.534,0,0.967,0.433,0.967,0.968C35.731,37.383,35.299,37.815,34.765,37.815z    M39.558,38.244c-0.737,0-1.334-0.623-1.334-1.396c0-0.77,0.597-1.395,1.334-1.395c0.736,0,1.333,0.625,1.333,1.395   C40.891,37.621,40.294,38.244,39.558,38.244z"></path><g><path d="M23.544,45.234c-0.534,0-0.967-0.433-0.967-0.968v-2.17c0-0.535,0.434-0.968,0.967-0.968c0.535,0,0.967,0.433,0.967,0.968    v2.17C24.512,44.802,24.079,45.234,23.544,45.234z"></path><path d="M41.339,45.234c-0.535,0-0.968-0.433-0.968-0.968v-2.17c0-0.535,0.433-0.968,0.968-0.968c0.534,0,0.967,0.433,0.967,0.968    v2.17C42.306,44.802,41.873,45.234,41.339,45.234z"></path></g><path d="M17.409,25.324H5.783c-0.534,0-0.967,0.433-0.967,0.968v20.741C4.815,47.567,5.249,48,5.783,48h11.626   c0.534,0,0.967-0.433,0.967-0.967V26.292C18.375,25.757,17.943,25.324,17.409,25.324z M12.882,35.934H9.796   c-0.534,0-0.967-0.433-0.967-0.967c0-0.535,0.433-0.968,0.967-0.968h3.086c0.534,0,0.967,0.433,0.967,0.968   C13.85,35.501,13.417,35.934,12.882,35.934z M12.882,31.876H9.796c-0.534,0-0.967-0.433-0.967-0.968   c0-0.534,0.433-0.967,0.967-0.967h3.086c0.534,0,0.967,0.433,0.967,0.967C13.85,31.443,13.417,31.876,12.882,31.876z"></path><path d="M14.271,27.259c-0.801,0-1.451-0.433-1.451-0.967V2.539c0-0.535,0.65-0.967,1.451-0.967c0.801,0,1.451,0.433,1.451,0.967   v23.753C15.723,26.826,15.073,27.259,14.271,27.259z"></path><path d="M46.247,5.078H1.753c-0.534,0-0.967-1.135-0.967-2.539S1.219,0,1.753,0h44.494c0.534,0,0.967,1.135,0.967,2.539   S46.781,5.078,46.247,5.078z"></path><path d="M46.247,48H1.753c-0.534,0-0.967-0.433-0.967-0.967c0-0.535,0.433-0.968,0.967-0.968h44.494   c0.534,0,0.967,0.433,0.967,0.968C47.214,47.567,46.781,48,46.247,48z"></path></g></svg>