<svg xmlns:dc="http://purl.org/dc/elements/1.1/" xmlns:cc="http://creativecommons.org/ns#" xmlns:rdf="http://www.w3.org/1999/02/22-rdf-syntax-ns#" xmlns:svg="http://www.w3.org/2000/svg" xmlns="http://www.w3.org/2000/svg" xmlns:sodipodi="http://sodipodi.sourceforge.net/DTD/sodipodi-0.dtd" xmlns:inkscape="http://www.inkscape.org/namespaces/inkscape" viewBox="0 0 80 80" version="1.1" x="0px" y="0px"><path style="" d="m 47.704178,1.1836443 c -5.028857,0 -9.502109,2.4580836 -12.382864,6.2639314 C 33.914893,7.0202503 32.424117,6.780583 30.884362,6.780583 c -8.690783,0 -15.746827,7.318566 -15.746827,16.326822 0,8.903782 6.905283,16.131143 15.456831,16.297821 0.94871,1.976493 2.254032,3.712234 3.856957,5.132944 0.338022,6.887318 0.485353,15.884782 -0.347996,23.518743 -0.321951,2.949249 -3.421962,9.047901 -3.421962,9.047901 -0.198104,0.297954 3.133544,0.231997 3.305963,0.231997 l 8.032913,0 c 0.172419,0 3.183329,-0.09004 3.160965,-0.260997 0,0 -3.315166,-5.298355 -3.943957,-8.293909 -0.705477,-3.360885 -0.911459,-7.746814 -0.840991,-12.295865 1.393928,-1.014524 3.528806,-3.332583 6.727927,-8.26491 7.525586,-1.220043 13.281854,-7.923227 13.281854,-16.065824 0,-1.501376 -0.184588,-2.969245 -0.550994,-4.349953 2.225763,-2.813619 3.595961,-6.372428 3.595961,-10.294887 0,-9.0082558 -7.056044,-16.3268217 -15.746828,-16.3268217 z M 40.802254,47.960133 c 1.242392,0.326939 2.545453,0.492994 3.885957,0.492994 0.326012,0 0.635878,-0.03777 0.95699,-0.058 -1.022989,1.468395 -3.110949,4.330247 -5.190943,5.857936 0.07067,-2.129031 0.200426,-4.25391 0.347996,-6.292931 z" fill="#000000" fill-opacity="1" stroke="none"></path></svg>