<svg xmlns:dc="http://purl.org/dc/elements/1.1/" xmlns:cc="http://creativecommons.org/ns#" xmlns:rdf="http://www.w3.org/1999/02/22-rdf-syntax-ns#" xmlns:svg="http://www.w3.org/2000/svg" xmlns="http://www.w3.org/2000/svg" xmlns:sodipodi="http://sodipodi.sourceforge.net/DTD/sodipodi-0.dtd" xmlns:inkscape="http://www.inkscape.org/namespaces/inkscape" viewBox="0 0 100 100" version="1.1" x="0px" y="0px"><g transform="translate(0,-952.36216)"><g transform="matrix(4.0909091,0,0,4.0909091,63427.835,-8809.1207)"><g><path style="opacity:1;fill:#000000;fill-opacity:1;stroke:none;stroke-width:3;stroke-linecap:butt;stroke-linejoin:miter;stroke-miterlimit:4;stroke-dasharray:none;stroke-dashoffset:0;stroke-opacity:1" d="M 18.744141 5 L 18.744141 86.818359 L 13.884766 86.818359 L 13.884766 95 L 75.248047 95 L 75.248047 86.818359 L 70.392578 86.818359 L 70.392578 47.386719 L 73.84375 50.839844 L 73.84375 75.384766 L 79.980469 81.521484 L 86.117188 75.384766 L 86.117188 20.509766 L 77.333984 11.728516 L 74.441406 14.621094 L 82.025391 22.203125 L 82.025391 73.691406 L 79.980469 75.736328 L 77.935547 73.691406 L 77.935547 49.146484 L 70.392578 41.603516 L 70.392578 5 L 18.744141 5 z M 24.369141 11.351562 L 64.767578 11.351562 L 64.767578 33.931641 L 24.369141 33.931641 L 24.369141 11.351562 z M 40.210938 52.376953 L 42.322266 56.033203 L 44.431641 59.6875 L 42.322266 63.341797 L 38.101562 63.341797 L 38.099609 63.341797 L 35.990234 59.6875 L 38.099609 56.033203 L 40.210938 52.376953 z M 48.886719 57.669922 L 50.998047 61.326172 L 53.109375 64.980469 L 50.998047 68.636719 L 46.777344 68.636719 L 44.666016 64.980469 L 46.777344 61.326172 L 48.886719 57.669922 z " transform="matrix(0.24444444,0,0,0.24444444,-15504.582,2386.1402)"></path></g></g></g></svg>