<svg xmlns="http://www.w3.org/2000/svg" xmlns:xlink="http://www.w3.org/1999/xlink" version="1.1" x="0px" y="0px" viewBox="0 0 100 100" enable-background="new 0 0 100 100" xml:space="preserve"><g><rect x="37.537" y="58.789" fill="#000000" width="7.568" height="11.633"></rect><rect x="29.526" y="47.749" fill="#000000" width="7.412" height="7.411"></rect><rect x="45.105" y="47.749" fill="#000000" width="7.412" height="7.411"></rect><path fill="#000000" d="M99.028,60.435l-6.416-20.848h1.965c0.201-0.274,0.261-0.628,0.159-0.953l-6.109-19.547   c-0.139-0.446-0.553-0.75-1.02-0.75c-0.47,0-0.881,0.304-1.021,0.75l-5.905,18.899c1.667,0.616,2.918,2.096,3.202,3.896   c4.136,0.5,7.349,4.032,7.349,8.299c0,4.609-3.75,8.36-8.358,8.36c-0.717,0-1.421-0.091-2.106-0.271   c-1.332,1.074-2.894,1.787-4.562,2.102l-0.02,0.062c-0.161,0.523-0.064,1.093,0.261,1.533h9.437v8.483h3.448v-8.483h9.436   C99.092,61.527,99.188,60.958,99.028,60.435z"></path><path fill="#000000" d="M82.873,56.816c3.664,0,6.636-2.971,6.636-6.635c0-3.666-2.972-6.635-6.636-6.635   c-0.273,0-0.541,0.021-0.806,0.053c0.089-0.299,0.153-0.609,0.153-0.938c0-1.802-1.461-3.262-3.263-3.262   c-0.939,0-1.778,0.401-2.373,1.036c0-0.01,0-0.019,0-0.028c0-4.778-3.873-8.651-8.651-8.651c-1.668,0-3.221,0.48-4.542,1.297   c-1.214-1.557-3.104-2.563-5.231-2.563c-3.524,0-6.399,2.75-6.615,6.22l-0.312-0.165l-9.447-4.967l-9.17,4.585v-2.546h-5.489v5.291   l-9.769,4.885l1.624,3.247l3.601-1.801v3.504H0.182v21.678h3.67l-0.04-4.751V52.374h18.769v18.048h3.63v-3.631v-2.467V43.425   l15.533-7.767l14.416,7.581v23.552h-0.012v3.631h3.643V59.807c0.693-0.118,1.363-0.302,1.999-0.557l5.458,11.201h3.835   l-3.699-7.593l4.875-4.271c0.647,0.154,1.317,0.245,2.011,0.245c2.379,0,4.529-0.96,6.093-2.512   C81.138,56.639,81.984,56.816,82.873,56.816z M65.817,59.645l-1.091-2.239c0.867-0.788,1.592-1.727,2.132-2.78   c0.535,0.892,1.225,1.682,2.035,2.327L65.817,59.645z"></path></g></svg>