<svg xmlns="http://www.w3.org/2000/svg" xmlns:xlink="http://www.w3.org/1999/xlink" version="1.1" x="0px" y="0px" viewBox="0 0 50 50" enable-background="new 0 0 50 50" xml:space="preserve"><g><path fill="#000000" d="M26.876,17.546c-1.808,0.378-3.149,1.048-4.021,2.015c-0.872,0.96-0.939,2.474-0.194,4.535   c1.151,2.996,2.054,6.393,2.7,10.167c0.657,3.777,0.973,7.385,0.973,10.818h1.281c0.832-3.674,1.306-7.941,1.398-12.773   C29.124,27.473,28.404,22.552,26.876,17.546L26.876,17.546z M21.184,13.834c0.211,0,0.597-0.186,1.178-0.57   c0.57-0.378,1.345-0.355,2.31,0.058c-0.115-1.354-0.716-2.144-1.796-2.38C21.78,10.717,21.22,11.676,21.184,13.834L21.184,13.834z    M12.852,17.637c-0.338-0.362-0.858-0.551-1.574-0.582c-0.707-0.029-1.239,0.055-1.596,0.258c-0.171,0.294-0.33,0.691-0.482,1.213   c-0.157,0.52-0.173,0.926-0.059,1.228c0.355-0.56,0.859-0.845,1.521-0.831c0.646,0.008,1.157,0.039,1.543,0.1   c0.106-0.207,0.204-0.467,0.283-0.768C12.564,17.955,12.679,17.744,12.852,17.637L12.852,17.637z M12.429,12.246   c1.739-4.992,3.991-7.541,6.759-7.659c2.765-0.124,5.398,0.921,7.892,3.126c0.068-0.223,0.109-0.902,0.096-2.016   C27.169,4.587,27.441,3.552,28,2.588c0.552-0.971,1.557-1.609,2.999-1.918c1.452-0.311,3.667,0.211,6.646,1.578   c-0.457,0.162-1.006,0.094-1.654-0.232c-0.647-0.32-1.346-0.42-2.078-0.293c-0.746,0.12-1.503,0.68-2.285,1.686   c-0.781,0.994-1.527,2.9-2.225,5.699c0.514-1.271,1.75-2.807,3.723-4.627c1.977-1.807,3.725-1.922,5.262-0.338   c0.563,0.628,0.911,1.508,1.045,2.648c0.137,1.144,0.098,1.947-0.113,2.398c-0.475-2.725-1.754-3.846-3.854-3.371   c-2.094,0.475-3.584,2.341-4.473,5.605c1.206,0,2.656-0.578,4.351-1.738c1.681-1.162,4.034-0.578,7.039,1.738   c-1.205-0.057-1.993,0-2.356,0.176c-0.36,0.164-0.661,0.25-0.901,0.25c1.625,0,2.835,1.009,3.635,3.029   c0.804,2.02,1.214,3.615,1.214,4.768c-1.482-3.425-3.6-5.357-6.369-5.796c-2.764-0.444-4.518,0.044-5.248,1.452   c1.789,0.593,2.629,1.5,2.531,2.73c-0.105,1.229-0.838,2.785-2.191,4.67c-0.293-1.626-0.512-2.816-0.689-3.589   c-0.162-0.763-1.244-1.365-3.229-1.802c0.834,4.086,1.392,8.572,1.691,13.458c0.293,4.871,0.037,9.478-0.754,13.781   c-0.203,0.559-0.311,1.236-0.311,2.01c0.851,0.853,1.953,1.463,3.328,1.836c1.371,0.375,1.951,0.574,1.74,0.574   c-1.248,0.243-2.373,0.211-3.365-0.089c-1.228-0.317-2.535-0.704-3.897-1.159c-1.371-0.453-2.508-0.211-3.388,0.734   c-0.173,0.26-0.85,0.507-2.039,0.707c-1.189,0.215-2.125,0.291-2.803,0.23c1.092-0.734,1.868-1.121,2.32-1.16   c0.453-0.039,0.978-0.349,1.557-0.936c1.091-1.271,1.701-3.04,1.83-5.313c0.121-2.284-0.021-4.588-0.438-6.914   c-0.415-2.33-0.977-4.452-1.672-6.34c-0.698-1.885-1.307-3.084-1.82-3.597c-0.774-0.737-1.545-0.918-2.321-0.548   c-0.774,0.367-1.479,0.896-2.106,1.582c-0.641,0.688-1.142,1.338-1.528,1.945c-0.388,0.598-0.578,0.771-0.578,0.502   c0.082-0.898,0.294-2.088,0.625-3.547c0.34-1.473,1.528-2.363,3.588-2.682c-0.493-0.677-1.336-1.129-2.525-1.362   c-1.188-0.225-1.854-0.337-2.011-0.337c-0.376,0.789-0.694,1.642-0.978,2.549c-0.272,0.905-0.406,1.849-0.406,2.838   c-0.589-0.834-0.859-1.752-0.813-2.769c0.052-1.007,0.079-1.913,0.079-2.708c-0.968,0-2.07,0.707-3.309,2.1   c-1.237,1.4-2.033,2.498-2.389,3.289c-0.173-2.215,0.076-3.578,0.736-4.093c0.658-0.523,1.147-1.094,1.469-1.722   c-0.524-0.563-0.685-1.363-0.465-2.391c0.212-1.031,0.594-1.776,1.121-2.254c0.941-0.627,1.881-0.789,2.809-0.492   c0.916,0.293,1.67,0.6,2.264,0.924c0.296-0.574,0.8-1.086,1.486-1.55c0.689-0.466,1.586-0.513,2.709-0.155   c0-2.156,0.436-3.512,1.315-4.083c0.882-0.56,1.537-0.956,1.963-1.189c-3.173-1.982-5.214-2.177-6.134-0.57   C14.439,10.035,13.462,11.299,12.429,12.246L12.429,12.246z M16.306,17.124c0.331,0.114,0.791,0.356,1.403,0.731   c0.621,0.381,1.141,0.804,1.577,1.277c-0.119-0.263-0.32-0.833-0.609-1.684c-0.292-0.859-0.511-1.43-0.669-1.719   c-0.22,0-0.542,0.146-0.935,0.423C16.675,16.447,16.42,16.762,16.306,17.124L16.306,17.124z M21.386,16.475   c-0.117,0.221-0.156,0.951-0.127,2.162c0.017,1.221,0.175,1.897,0.437,2.057c0.113-0.836,0.348-1.975,0.693-3.419   c0.347-1.437,1.038-2.165,2.053-2.165c-0.96,0.117-1.595,0.252-1.896,0.424C22.246,15.701,21.859,16.02,21.386,16.475   L21.386,16.475z"></path></g></svg>