<svg xmlns="http://www.w3.org/2000/svg" xmlns:xlink="http://www.w3.org/1999/xlink" version="1.1" x="0px" y="0px" viewBox="0 0 96 96" enable-background="new 0 0 96 96" xml:space="preserve"><path d="M94.04,24c-0.028,0-0.056,0-0.08,0h-92c-0.948,0-1.764-0.668-1.956-1.588c-0.196-0.928,0.288-1.868,1.16-2.244l46-20  c0.508-0.224,1.084-0.224,1.592,0l45.74,19.888c0.888,0.204,1.544,1,1.544,1.948C96.04,23.104,95.141,24,94.04,24z"></path><path d="M22.04,72h-12c-1.104,0-2-0.9-2-2V30c0-1.104,0.896-2,2-2h12c1.104,0,2,0.896,2,2v40C24.04,71.1,23.144,72,22.04,72z"></path><path d="M86.04,72h-12c-1.101,0-2-0.9-2-2V30c0-1.104,0.899-2,2-2h12c1.101,0,2,0.896,2,2v40C88.04,71.1,87.141,72,86.04,72z"></path><path d="M48.04,68c-9.12,0-16-7.252-16-16.868V34.696c0-0.552,0.228-1.076,0.624-1.452c0.404-0.376,0.924-0.584,1.488-0.544  c7.264,0.408,9.336-1.136,12.508-4.148c0.772-0.736,1.984-0.736,2.756,0c3.168,3.012,5.252,4.54,12.508,4.148  c0.564-0.04,1.084,0.168,1.488,0.544s0.62,0.904,0.62,1.452v16.436C64.04,60.752,57.156,68,48.04,68L48.04,68z"></path><path d="M92.04,80v-2c0-1.1-0.899-2-2-2h-84c-1.104,0-2,0.9-2,2v2H92.04z"></path><path d="M94.04,84h-92c-1.104,0-2,0.9-2,2v8c0,1.1,0.896,2,2,2h92c1.101,0,2-0.9,2-2v-8C96.04,84.9,95.141,84,94.04,84z"></path></svg>