<svg xmlns="http://www.w3.org/2000/svg" xmlns:xlink="http://www.w3.org/1999/xlink" version="1.1" x="0px" y="0px" viewBox="0 0 48 48" enable-background="new 0 0 48 48" xml:space="preserve"><g><path d="M47.011,44.229H0.99c-0.547,0-0.99-0.442-0.99-0.989s0.443-0.99,0.99-0.99h46.021c0.547,0,0.989,0.443,0.989,0.99   S47.558,44.229,47.011,44.229z"></path><path d="M47.011,48H0.99C0.443,48,0,47.558,0,47.011c0-0.548,0.443-0.99,0.99-0.99h46.021c0.547,0,0.989,0.442,0.989,0.99   C48,47.558,47.558,48,47.011,48z"></path><path d="M47.011,22.247H34.995v-6.686h0.815c0.008,0.001,0.016,0.001,0.02,0c0.547,0,0.989-0.443,0.989-0.99   c0-0.446-0.295-0.823-0.7-0.947L24.41,8.296c-0.261-0.118-0.559-0.118-0.819,0L11.78,13.67c-0.424,0.193-0.656,0.655-0.558,1.111   c0.098,0.455,0.501,0.78,0.967,0.78h0.816v6.686H0.99c-0.547,0-0.99,0.443-0.99,0.99v16.606c0,0.547,0.443,0.989,0.99,0.989h18.278   V30.53c0-0.579,0.443-1.048,0.99-1.048h7.484c0.547,0,0.99,0.469,0.99,1.048v10.302h18.278c0.547,0,0.989-0.442,0.989-0.989V23.236   C48,22.689,47.558,22.247,47.011,22.247z M6.517,37.021c0,0.547-0.443,0.99-0.99,0.99s-0.99-0.443-0.99-0.99V34.21   c0-0.547,0.443-0.989,0.99-0.989s0.99,0.442,0.99,0.989V37.021z M6.517,30.436c0,0.548-0.443,0.99-0.99,0.99s-0.99-0.442-0.99-0.99   v-2.812c0-0.547,0.443-0.989,0.99-0.989s0.99,0.442,0.99,0.989V30.436z M10.851,37.021c0,0.547-0.443,0.99-0.99,0.99   c-0.547,0-0.99-0.443-0.99-0.99V34.21c0-0.547,0.442-0.989,0.99-0.989c0.547,0,0.99,0.442,0.99,0.989V37.021z M10.851,30.436   c0,0.548-0.443,0.99-0.99,0.99c-0.547,0-0.99-0.442-0.99-0.99v-2.812c0-0.547,0.442-0.989,0.99-0.989   c0.547,0,0.99,0.442,0.99,0.989V30.436z M15.184,37.021c0,0.547-0.442,0.99-0.99,0.99c-0.547,0-0.99-0.443-0.99-0.99V34.21   c0-0.547,0.443-0.989,0.99-0.989c0.547,0,0.99,0.442,0.99,0.989V37.021z M15.184,30.436c0,0.548-0.442,0.99-0.99,0.99   c-0.547,0-0.99-0.442-0.99-0.99v-2.812c0-0.547,0.443-0.989,0.99-0.989c0.547,0,0.99,0.442,0.99,0.989V30.436z M20.656,25.034   c0,0.547-0.442,0.989-0.99,0.989c-0.547,0-0.989-0.442-0.989-0.989v-2.811c0-0.547,0.442-0.99,0.989-0.99   c0.547,0,0.99,0.443,0.99,0.99V25.034z M20.656,18.45c0,0.547-0.442,0.99-0.99,0.99c-0.547,0-0.989-0.442-0.989-0.99v-2.813   c0-0.547,0.442-0.989,0.989-0.989c0.547,0,0.99,0.442,0.99,0.989V18.45z M24.99,25.034c0,0.547-0.443,0.989-0.99,0.989   s-0.99-0.442-0.99-0.989v-2.811c0-0.547,0.443-0.99,0.99-0.99s0.99,0.443,0.99,0.99V25.034z M24.99,18.45   c0,0.547-0.443,0.99-0.99,0.99s-0.99-0.442-0.99-0.99v-2.813c0-0.547,0.443-0.989,0.99-0.989s0.99,0.442,0.99,0.989V18.45z    M29.323,25.034c0,0.547-0.442,0.989-0.989,0.989s-0.99-0.442-0.99-0.989v-2.811c0-0.547,0.443-0.99,0.99-0.99   s0.989,0.443,0.989,0.99V25.034z M29.323,18.45c0,0.547-0.442,0.99-0.989,0.99s-0.99-0.442-0.99-0.99v-2.813   c0-0.547,0.443-0.989,0.99-0.989s0.989,0.442,0.989,0.989V18.45z M34.795,37.021c0,0.547-0.442,0.99-0.99,0.99   c-0.547,0-0.989-0.443-0.989-0.99V34.21c0-0.547,0.442-0.989,0.989-0.989c0.548,0,0.99,0.442,0.99,0.989V37.021z M34.795,30.436   c0,0.548-0.442,0.99-0.99,0.99c-0.547,0-0.989-0.442-0.989-0.99v-2.812c0-0.547,0.442-0.989,0.989-0.989   c0.548,0,0.99,0.442,0.99,0.989V30.436z M39.128,37.021c0,0.547-0.443,0.99-0.99,0.99s-0.989-0.443-0.989-0.99V34.21   c0-0.547,0.442-0.989,0.989-0.989s0.99,0.442,0.99,0.989V37.021z M39.128,30.436c0,0.548-0.443,0.99-0.99,0.99   s-0.989-0.442-0.989-0.99v-2.812c0-0.547,0.442-0.989,0.989-0.989s0.99,0.442,0.99,0.989V30.436z M43.461,37.021   c0,0.547-0.442,0.99-0.989,0.99s-0.989-0.443-0.989-0.99V34.21c0-0.547,0.442-0.989,0.989-0.989s0.989,0.442,0.989,0.989V37.021z    M43.461,30.436c0,0.548-0.442,0.99-0.989,0.99s-0.989-0.442-0.989-0.99v-2.812c0-0.547,0.442-0.989,0.989-0.989   s0.989,0.442,0.989,0.989V30.436z"></path><path d="M24,10.187c-0.547,0-0.99-0.443-0.99-0.99V0.99C23.01,0.443,23.453,0,24,0s0.99,0.443,0.99,0.99v8.208   C24.99,9.744,24.547,10.187,24,10.187z"></path><path d="M23.217,4.366V2.75c0.597,0,1.081-0.393,1.081-0.88c0-0.486-0.483-0.879-1.081-0.879H17.81   c-0.598,0-1.081,0.393-1.081,0.879v3.377c0,0.486,0.482,0.879,1.081,0.879h5.408c0.597,0,1.081-0.393,1.081-0.879   C24.298,4.759,23.814,4.366,23.217,4.366z"></path></g></svg>