<svg xmlns="http://www.w3.org/2000/svg" xmlns:xlink="http://www.w3.org/1999/xlink" version="1.1" x="0px" y="0px" viewBox="0 0 72 72" enable-background="new 0 0 72 72" xml:space="preserve"><path fill="#000000" d="M71,70.5l-0.2-44.4c0-0.1,0-0.2-0.1-0.3l-9.9-9.5c-0.1-0.1-0.4-0.1-0.5,0l-6.5,6.2c-0.2,0.2-0.6,0.1-0.6-0.3  v-5h-0.1L36.3,1.2c-0.1-0.1-0.4-0.1-0.5,0L19,17.4h-0.1v5c0,0.3-0.4,0.5-0.6,0.3l-6.5-6.3c-0.1-0.1-0.4-0.1-0.5,0L1.1,26  C1,26,1,26.1,1,26.2v44.3c0,0.2,0.2,0.4,0.4,0.4h25.5c0.2,0,0.4-0.2,0.4-0.4V52.7c0-4.6,3.9-8.4,8.8-8.4c4.9,0,8.8,3.8,8.8,8.4v17.8  c0,0.2,0.2,0.4,0.4,0.4h25.5C70.8,70.9,71,70.8,71,70.5z M19.9,57.6H7.7c-0.2,0-0.4-0.2-0.4-0.4V44.1c0-3.4,2.9-6.2,6.5-6.2  s6.5,2.8,6.5,6.2v13.1C20.3,57.4,20.2,57.6,19.9,57.6z M36,32.6c-3.3,0-6-2.7-6-6c0-3.3,2.7-6,6-6c3.3,0,6,2.7,6,6  C42,30,39.3,32.6,36,32.6z M51.7,44.1c0-3.4,2.9-6.2,6.5-6.2c3.6,0,6.5,2.8,6.5,6.2v13.1c0,0.2-0.2,0.4-0.4,0.4H52.1  c-0.2,0-0.4-0.2-0.4-0.4V44.1z"></path></svg>