<svg xmlns:dc="http://purl.org/dc/elements/1.1/" xmlns:cc="http://creativecommons.org/ns#" xmlns:rdf="http://www.w3.org/1999/02/22-rdf-syntax-ns#" xmlns:svg="http://www.w3.org/2000/svg" xmlns="http://www.w3.org/2000/svg" xmlns:sodipodi="http://sodipodi.sourceforge.net/DTD/sodipodi-0.dtd" xmlns:inkscape="http://www.inkscape.org/namespaces/inkscape" viewBox="0 0 80 80" version="1.1" x="0px" y="0px"><path d="m 38.925731,1.1611767 c 2.23184,-0.98502602 0.734698,1.987818 2.40597,2.352105 -2.514641,-0.916914 0.566357,2.73771 0.628426,-0.16159 -0.296252,-1.625468 2.271332,-1.513207 2.37006,-0.583538 1.194365,0.812838 0.88752,0.148555 1.382535,-1.050368 1.266711,0.588789 -2.142212,4.119856 -0.01795,2.621431 -2.081151,0.09324 1.982645,-1.793254 1.0773,-0.107732 0.601381,1.074412 1.735198,1.142106 0.86184,-0.466829 1.918709,-0.581738 1.279895,1.990977 2.76507,0.0359 1.291866,2.85369 1.458391,-3.36271302 2.094003,-0.231172 -0.0054,1.075658 -1.062078,1.643176 0.07855,1.559842 -1.265472,1.902805 1.949356,-1.157105 1.214207,1.232162 0.235078,0.560805 0.893377,0.9834518 0.08528,2.0334041 0.384493,0.1079232 2.106069,1.3270427 0.154864,1.2950037 1.729794,1.6463525 1.126739,0.4548865 1.4364,-1.25685 -1.878291,-0.1216873 2.517187,-2.5904308 1.045879,-0.053857 -0.690206,0.5886178 -1.000055,3.8572285 -0.237904,2.8009795 1.88324,0.222702 -1.645454,1.726723 1.005482,2.44188 2.618435,-0.930081 -0.833679,-1.946897 1.492508,-3.507958 1.760274,-0.6564705 2.371376,0.123112 1.416202,1.712458 -1.550115,-1.9416025 -1.336941,1.521096 0.0606,1.449868 0.65545,1.01236 -1.843904,0.06303 -0.04207,1.098061 0.226176,0.87411 -2.044487,-1.059144 -1.167636,0.773747 -2.522778,1.42115 -0.145444,0.273575 1.047492,-0.123582 1.768116,1.898644 -2.283759,1.209089 0.07245,2.080676 0.527782,1.178103 2.060782,-0.915392 1.286028,0.682291 0.588768,1.132426 2.125855,-2.916178 2.019937,-0.864085 -0.881633,0.146122 0.626278,0.479894 -0.781042,0.899995 1.242705,0.462968 -0.164179,0.772769 1.095255,1.472309 -1.068441,-0.349073 -2.824705,2.158932 -0.86184,2.405971 -0.399389,1.646392 -2.462663,0.41438 -0.341144,1.885276 1.468886,-0.285305 2.194531,-1.518237 2.316194,-3.357586 0.481792,1.985763 2.328009,-1.106392 1.681038,1.160342 -1.062817,0.409719 -2.131679,0.116456 -1.663082,1.820189 -0.915107,0.3135 -0.225485,1.054116 -1.14912,1.526175 1.684479,-0.548599 2.730027,2.112191 1.13341,2.372306 -0.243848,2.100987 3.82136,-2.048323 2.643874,0.363588 -0.224819,0.366879 -1.684982,0.858604 -0.563339,1.178298 -2.451346,-0.841037 1.116087,2.743539 -1.041389,1.490265 0.04266,1.600651 -0.68976,-0.403209 -1.256851,1.00548 -0.357298,0.423339 2.660562,0.492243 -0.17955,0.556605 -1.416846,1.64298 1.331183,-0.126536 0.143637,1.220941 0.934167,0.48588 2.099427,0.609733 1.22094,2.33415 -1.785299,0.227777 2.409928,0.08509 0.341145,-0.215461 1.250695,-0.147964 1.858975,-0.264648 1.710213,-0.992014 1.030408,0.759164 0.332303,2.358882 1.346627,2.940133 -0.596381,1.023446 -0.408925,-1.266491 -1.243385,0.134669 1.249707,-0.177635 0.273172,1.948998 -0.197505,1.490265 1.238272,1.505935 -0.519811,2.354811 -1.507378,2.739822 0.122469,1.336427 -0.876905,1.572568 -1.550998,1.832677 -0.566654,-0.690335 -0.337711,2.107192 -1.636858,1.000285 -0.404467,1.157789 -0.700281,0.284289 -1.535152,1.698994 0.853407,-2.242254 -2.692837,-0.04119 -0.700246,0.736154 -1.042194,1.123931 -1.782527,-1.451821 -1.75959,1.202986 1.490715,-0.234873 3.085767,-0.465317 3.680776,-0.05386 -1.384227,-1.40852 1.281313,-0.680832 0.215459,-2.136645 0.491164,-0.359904 2.681415,0.801775 1.274807,-0.43092 1.438385,-0.620328 3.152015,3.912118 0.951615,2.675295 0.711742,1.313628 0.184868,1.423951 1.939141,2.136646 -1.558146,-1.387142 0.175833,-2.28221 1.23665,-1.865075 -1.715506,1.507423 3.175132,-0.417966 1.70797,1.16483 1.376622,2.66883 -2.087925,0.08338 -1.310716,2.352104 1.524042,1.225838 0.77752,0.685635 -0.119359,0.890315 -0.132584,0.220052 -2.437345,0.05438 -0.616798,1.084736 -0.654256,1.254508 -4.615242,-0.895132 -2.76507,1.328671 2.55832,0.221152 -2.71384,2.375745 -0.25137,1.0773 -1.79377,-1.551033 -0.659835,1.75438 -2.15937,-0.264272 -0.634622,-0.473793 -1.056112,0.973558 -1.611181,-0.543703 -0.224686,1.240995 -1.241799,-0.106359 -1.407224,0.527428 -1.99635,0.551107 2.76836,0.810564 2.968468,0.389961 -1.203325,0.809874 0.946721,0.644854 -1.205791,1.255731 -0.649295,2.066628 -3.86691,5.784887 -6.083099,4.084199 -1.263788,1.505653 -0.840698,0.677418 -1.586494,-0.05808 -0.821296,2.383724 -0.80871,-1.200788 -1.807002,0.35433 -1.9029,0.250695 -3.124619,-1.328647 -3.627192,0.667703 -2.163741,-0.223398 -1.955131,1.7704 -3.662539,2.510333 1.498803,-1.116427 0.593892,-3.010584 -0.403989,-1.081789 -1.079827,1.333006 -0.241682,2.137245 1.140143,1.207475 -1.575839,0.484328 -0.830743,3.543877 -1.698993,2.951634 0.04892,-3.355705 -0.268708,3.006399 0.0247,4.284233 -0.269546,1.271838 0.175452,4.511033 0.102448,5.972939 -0.07907,1.583474 -1.859155,0.941004 -2.801852,0.84315 -0.635139,-4.057724 1.626801,-9.048114 0.170001,-12.9567 -1.161478,-1.153474 -2.311872,-3.419686 -3.366564,-2.459837 -0.812477,0.0679 -2.171992,1.015467 -3.633643,0.61047 -0.01112,1.964446 -2.283489,0.886316 -1.288271,-0.671068 -0.09805,-0.97412 1.196199,-1.802869 -0.837153,-1.654106 -1.930428,-0.545059 -1.229275,1.967251 -3.020931,1.180543 -0.319383,0.601649 -1.272884,-0.852913 -2.107466,0.08528 -0.335448,-0.686887 -3.516959,-0.829633 -3.465316,0.520695 -1.730067,-0.731358 -2.84591,-0.590161 -0.395009,-1.124433 3.403163,-0.55261 1.529838,-2.117052 -0.699861,-2.125983 0.185725,-1.239136 0.701546,-2.764005 -1.634291,-2.760021 -2.491253,0.863326 -1.746883,-2.574477 -3.680775,-2.159089 2.153498,0.381381 2.663945,-1.483496 2.16526,-2.118411 1.734163,0.658667 3.285115,-0.216182 1.371876,-1.670096 -1.930317,-0.342662 -4.3858,0.90085 -5.085756,1.936897 -0.09329,1.082062 -1.841178,-0.290452 -0.498251,-0.626181 -1.288512,0.246189 -0.35495,-2.401076 -2.136646,-0.628426 -0.629868,-1.008637 1.382978,-3.70461 -0.451119,-3.023173 0.801178,1.821904 2.293115,1.501067 3.485516,1.784279 1.253068,-1.371993 0.593346,1.327689 2.299642,-3.6e-4 0.699605,-2.728459 -3.000538,-0.07012 -3.125573,-2.387736 2.092213,1.116826 4.476402,0.20039 2.415789,-1.642602 -0.547188,1.306045 -3.210551,-2.632156 -0.763929,-1.140424 0.537859,-0.64496 -1.816786,-3.175393 -1.292761,-1.400489 -0.418382,-1.424145 -0.531507,-1.116228 -1.849364,-1.580041 1.199783,-1.601084 0.357584,-0.333952 1.65186,-0.305235 -0.853021,-2.623817 -1.460224,-2.509111 -3.565433,-4.338283 1.472168,0.06555 2.387888,-2.640482 3.352777,-0.138128 1.442061,1.595219 1.607302,0.675596 0.787216,-0.604858 1.008616,1.182506 2.427918,0.554087 1.562085,-0.08978 0.445327,0.531658 1.057457,-1.475403 -0.879795,-0.915705 0.972976,-1.13028 -1.570391,-1.853657 -1.514392,-3.137638 -2.75922,0.54354 -1.491614,-3.423771 0.891859,-1.802514 2.534177,0.877676 1.712717,0.13533 0.759441,-0.64161 1.034198,-0.218288 -1.72155,-1.288428 0.329922,-0.864086 -0.620133,-0.400479 0.697399,-3.163658 0.879796,-0.879795 2.369704,0.493457 -0.645142,-1.253281 0.592515,-1.957095 -2.218796,-2.717937 2.821372,1.919398 0.68229,-0.772065 1.296177,0.260374 1.153152,2.945623 2.136645,0.718201 -0.490613,-1.673447 -1.853875,-1.253035 -0.646386,-2.262326 1.322048,-0.184743 -0.272954,1.821564 1.578356,0.680327 0.847734,-0.540517 3.300681,-0.453365 0.935345,-0.51873 -1.345502,-1.18836 1.067275,-1.122531 0.464586,-2.926667 0.432906,-0.762754 -2.070261,-0.106654 -0.387997,-0.954979 3.005499,0.569122 -1.004074,-1.371929 -0.821722,-1.718072 0.378453,-1.594122 -0.557256,-0.760739 0.217705,-2.203977 1.302367,1.317885 3.164547,-0.0106 4.060075,-0.579049 1.709476,0.29665 -0.301276,2.885645 1.11321,1.328671 0.12704,-1.411492 -0.923755,-2.153628 0.32768,-3.485516 -2.142294,-0.346308 1.197294,-1.770036 -0.430921,-2.621431 0.826445,-0.605284 0.20419,-2.7449895 1.066076,-0.933659 -0.246258,0.827164 1.130778,0.588218 0.645821,1.225709 2.455976,2.22314 -1.946934,-4.528092 1.383098,-3.3242005 1.017172,0.814005 0.794117,0.425165 0.663597,2.0641935 0.55162,0.959009 2.157834,0.522799 1.174276,0.132445 0.809922,-0.235079 0.267141,-2.8312097 1.315473,-3.8686996 -0.938047,0.1911441 -0.279365,-1.1968237 -0.664334,-2.5855207 0.960042,0.467102 1.412548,1.332546 1.472309,-0.556604 -1.961441,0.212077 2.356724,-3.73939102 1.695907,-0.396975 0.233024,3.036998 1.648992,0.311601 0.539491,-1.250398 -0.59917,-1.52866 2.311643,1.494162 1.732658,-1.494754 z"></path></svg>